<?xml version="1.0" encoding="UTF-8"?>
<svg id="Capa_2" xmlns="http://www.w3.org/2000/svg" viewBox="0 0 459.14 155.03">
  <defs>
    <style>
      .cls-1 {
        fill: #5A8C27;
      }

      .cls-2 {
        fill: #254019;
      }
    </style>
  </defs>
  <g id="Capa_1-2" data-name="Capa_1">
    <g>
      <path class="cls-2" d="M234.76,59.51h10.64l-12.53,42.97h-10.87l-8.13-26.04-8.13,26.04h-10.87l-12.63-42.97h11.72l7.36,26.39,7.83-26.39h10.49l7.83,26.48,7.29-26.48Z"/>
      <path class="cls-2" d="M256.58,85.56c1.49,5.39,5.53,8.08,12.12,8.08,4.24,0,7.45-1.43,9.63-4.3l8.94,5.16c-4.24,6.13-10.49,9.2-18.74,9.2-7.11,0-12.81-2.15-17.1-6.45-4.3-4.3-6.45-9.71-6.45-16.24s2.12-11.87,6.36-16.2c4.24-4.33,9.68-6.49,16.33-6.49,6.3,0,11.5,2.18,15.6,6.53,4.1,4.36,6.15,9.74,6.15,16.16,0,1.43-.14,2.95-.43,4.55h-32.4ZM256.4,76.96h21.92c-.63-2.92-1.93-5.1-3.91-6.53-1.98-1.43-4.23-2.15-6.75-2.15-2.98,0-5.44.76-7.39,2.28-1.95,1.52-3.24,3.65-3.87,6.4Z"/>
      <path class="cls-2" d="M326.47,59.51h11.09v42.97h-11.09v-5.07c-3.32,4.18-7.99,6.27-14.01,6.27s-10.64-2.19-14.74-6.58c-4.1-4.38-6.15-9.76-6.15-16.12s2.05-11.73,6.15-16.12c4.1-4.38,9.01-6.57,14.74-6.57,6.02,0,10.69,2.09,14.01,6.27v-5.07ZM306.01,89.73c2.23,2.26,5.07,3.4,8.51,3.4s6.29-1.13,8.55-3.4,3.4-5.17,3.4-8.72-1.13-6.46-3.4-8.72c-2.26-2.26-5.11-3.39-8.55-3.39s-6.27,1.13-8.51,3.39c-2.23,2.26-3.35,5.17-3.35,8.72s1.12,6.46,3.35,8.72Z"/>
      <path class="cls-1" d="M381.71,59.51h5.67v41.26c0,6.19-2.12,11.06-6.36,14.61-4.24,3.55-9.31,5.33-15.21,5.33-10.09,0-16.88-3.5-20.37-10.49l4.98-2.84c2.58,5.21,7.71,7.82,15.38,7.82,4.93,0,8.81-1.3,11.65-3.91,2.84-2.61,4.25-6.12,4.25-10.53v-6.7c-3.95,6.3-9.74,9.45-17.36,9.45-6.13,0-11.36-2.18-15.69-6.53-4.33-4.35-6.49-9.68-6.49-15.99s2.16-11.63,6.49-15.99c4.33-4.35,9.55-6.53,15.69-6.53,7.62,0,13.41,3.15,17.36,9.45v-8.42ZM352.74,93.08c3.27,3.3,7.28,4.94,12.03,4.94s8.77-1.65,12.03-4.94c3.27-3.29,4.9-7.32,4.9-12.08s-1.63-8.78-4.9-12.08c-3.27-3.29-7.28-4.94-12.03-4.94s-8.77,1.65-12.03,4.94c-3.27,3.3-4.9,7.32-4.9,12.08s1.63,8.78,4.9,12.08Z"/>
      <path class="cls-1" d="M401.29,66.65c2.63-5.21,7.16-7.82,13.58-7.82v5.5c-3.9,0-7.13,1.15-9.71,3.44-2.58,2.29-3.87,5.9-3.87,10.83v23.89h-5.67v-42.97h5.67v7.13Z"/>
      <path class="cls-1" d="M452.57,97.03c-4.38,4.33-9.73,6.49-16.03,6.49s-11.65-2.16-16.03-6.49c-4.38-4.33-6.58-9.67-6.58-16.03s2.19-11.7,6.58-16.03c4.38-4.33,9.73-6.49,16.03-6.49s11.65,2.16,16.03,6.49c4.38,4.33,6.58,9.67,6.58,16.03s-2.19,11.7-6.58,16.03ZM424.51,93.08c3.27,3.3,7.28,4.94,12.03,4.94s8.77-1.65,12.03-4.94c3.27-3.29,4.9-7.32,4.9-12.08s-1.63-8.78-4.9-12.08c-3.27-3.29-7.28-4.94-12.03-4.94s-8.77,1.65-12.03,4.94c-3.27,3.3-4.9,7.32-4.9,12.08s1.63,8.78,4.9,12.08Z"/>
    </g>
    <g>
      <g>
        <path class="cls-2" d="M137.31,29.52c-.13,1.34-.66,2.47-1.89,3.1-1.21.61-2.53.64-3.62-.18-1-.76-1.82-1.76-2.68-2.69C106.41,5.51,71.29.16,42.37,16.55c-.74.42-1.47.84-2.21,1.25-1.92,1.08-3.65.73-4.79-1.07-1.25-1.99-.72-3.86,1.28-5.07,2.29-1.39,4.64-2.68,7.04-3.86C74.22-7.27,112,0,134.73,25.28c1.12,1.25,2.46,2.38,2.58,4.24Z"/>
        <path class="cls-2" d="M76.95,155.03c-2.6-.21-5.98-.46-9.34-.77-2.4-.22-4.17-1.31-3.88-3.99.29-2.7,2.26-3.35,4.64-3.06,9.79,1.2,19.44.53,28.9-2.32,18.92-5.69,32.96-17.38,42.42-34.66.54-.99,1.01-2.02,1.51-3.03,1.03-2.07,2.43-3.69,4.96-2.59,2.67,1.16,2.68,3.27,1.56,5.65-3.16,6.68-7.08,12.87-12.02,18.35-15.48,17.18-34.88,25.81-58.74,26.41Z"/>
        <path class="cls-2" d="M.44,86.21c-.04-2.2.72-3.94,3.12-4.26,2.41-.32,3.79,1.14,4.05,3.35,1.55,13.35,6.59,25.24,14.74,35.87,1.39,1.81,1.45,3.81-.44,5.23-1.85,1.4-3.64.81-5.23-.86C9.47,117.96.79,97,.44,86.21Z"/>
      </g>
      <path class="cls-1" d="M158.48,49.72c-.79-.3-1.55-.67-2.33-.99-18.64-7.69-36.99-7.99-54.95,2.13-2.15,1.21-4.09,2.48-4.56,5.15-.5,2.85.02,5.34,2.38,7.21,3.2,2.54,6.49,1.59,9.46-.22,5.42-3.3,11.32-4.96,17.5-5.63,8.27-.9,16.12.84,23.72,4.2-12.4,24.66-40.29,37.57-65.28,36.78-.26-.55-.47-.8-.48-1.05-.04-.84-.06-1.69,0-2.53.83-14.21-3.38-27.04-11.51-38.43-15.1-21.14-35.78-31.94-61.9-31.91-8.95.01-10.85,2.14-10.48,11.19.73,17.44,7.68,32.45,18.19,45.96,7.74,9.95,17.07,18.16,28.49,23.76,5.63,2.76,11.67,4.35,17.97,5.84-3,5.65-7.16,9.74-11.55,13.71-2.73,2.47-5.18,3.44-9.04,2.29-6.88-2.04-14.13,2.81-16.17,10.06-1.95,6.96,2.48,14.5,9.88,16.8,6.39,1.99,14.8-1.78,16.4-8.3,1.06-4.33,3.48-6.77,6.72-9.07,1.37-.97,2.55-2.2,3.83-3.29,6.74-5.72,11.3-13.07,15.03-20.62.75-.12,1.03-.2,1.31-.21,1.27-.02,2.54,0,3.81-.03,35.32-.89,62.33-15.63,79.15-47.41,4.57-8.62,3.36-12-5.6-15.41ZM41.45,147.46c-3.47-.02-6.81-3.22-6.93-6.65-.12-3.49,3.39-7.04,6.97-7.03,3.7,0,6.9,3.35,6.79,7.09-.1,3.56-3.26,6.61-6.83,6.59ZM69.36,96.96c-22.3,1.26-53.98-32.13-54.74-57.99,30.31-.67,59.75,30.25,54.74,57.99Z"/>
    </g>
  </g>
</svg>
