<svg xmlns="http://www.w3.org/2000/svg" width="1200" height="630" viewBox="0 0 1200 630" role="img" aria-label="WEAGRO - Soluciones digitales para empresas del agro">
  <defs>
    <linearGradient id="bg" x1="0" x2="1" y1="0" y2="1">
      <stop offset="0" stop-color="#FEFEFE"/>
      <stop offset="0.56" stop-color="#F0F2E8"/>
      <stop offset="1" stop-color="#D5D9BC"/>
    </linearGradient>
    <linearGradient id="field" x1="0" x2="1" y1="0" y2="0">
      <stop offset="0" stop-color="#254019"/>
      <stop offset="1" stop-color="#5A8C27"/>
    </linearGradient>
  </defs>
  <rect width="1200" height="630" fill="url(#bg)"/>
  <path d="M0 455c160-58 296-70 459-31 172 41 294 17 430-32 121-44 213-44 311-9v247H0Z" fill="url(#field)"/>
  <path d="M0 512c197-49 347-33 506 16 166 51 327 44 480-10 89-31 151-33 214-10v122H0Z" fill="#1A2B11" opacity=".94"/>
  <g transform="translate(84 80)">
    <rect width="84" height="84" rx="22" fill="#5A8C27"/>
    <path d="M25 56c12-1 20-8 24-20 8 4 12 11 10 21-14 4-26 3-34-1Z" fill="#BBBF9F"/>
    <path d="M23 58c17-20 30-24 46-26" fill="none" stroke="#FFFFFF" stroke-width="7" stroke-linecap="round"/>
    <path d="M38 54V34c0-6 4-10 10-10h2v31" fill="none" stroke="#FFFFFF" stroke-width="7" stroke-linecap="round"/>
    <text x="112" y="55" font-family="Rubik, Arial, sans-serif" font-size="36" font-weight="900" fill="#254019">WEAGRO</text>
  </g>
  <text x="84" y="270" font-family="Rubik, Arial, sans-serif" font-size="82" font-weight="900" fill="#254019">Soluciones digitales</text>
  <text x="84" y="356" font-family="Rubik, Arial, sans-serif" font-size="82" font-weight="900" fill="#254019">para empresas del agro</text>
  <text x="88" y="430" font-family="Rubik, Arial, sans-serif" font-size="30" font-weight="600" fill="#4E594D">Webs, ecommerce, branding, marketing y webapps para el NEA.</text>
  <g transform="translate(84 492)">
    <rect width="220" height="54" rx="27" fill="#FFFFFF" opacity=".95"/>
    <text x="28" y="36" font-family="Rubik, Arial, sans-serif" font-size="22" font-weight="800" fill="#4E7329">100% foco agro</text>
  </g>
</svg>
